# xmcd
#
# Track frame offsets:
#	150
#	16960
#	30670
#	61415
#	79130
#	99805
#	122590
#	139470
#	154000
#	173640
#	192730
#	212245
#
# Disc length: 3071 seconds
#
# Revision: 1
# Processed by: cddbd v1.5.2PL0 Copyright (c) Steve Scherf et al.
# Submitted via: audiograbber 1.83.01
#
DISCID=a00bfd0c
DTITLE=Range Rider V (Laurie Jean Vigyikan) - Songs Of the Open Trail
DYEAR=2004
DGENRE=Cowboy
TTITLE0=Up Rode a Cowboy
TTITLE1=Puttin' Up the Hay
TTITLE2=Land Of the Bruin
TTITLE3=The Yodel Song
TTITLE4=Love Across the Ages
TTITLE5=The Cowboys From Riverton
TTITLE6=Dandelion Wine
TTITLE7=Left Footed Dancer
TTITLE8=Freight Train Shuffle
TTITLE9=Cliche Song
TTITLE10=Red Desert
TTITLE11=Darwin In G
EXTD=
EXTT0=
EXTT1=
EXTT2=
EXTT3=
EXTT4=
EXTT5=
EXTT6=
EXTT7=
EXTT8=
EXTT9=
EXTT10=
EXTT11=
PLAYORDER=
